<mxfile host="app.diagrams.net" modified="2024-03-21T09:38:57.753Z" agent="Mozilla/5.0 (Windows NT 10.0; Win64; x64) AppleWebKit/537.36 (KHTML, like Gecko) Chrome/122.0.0.0 Safari/537.36" etag="TgRoVikYKtFZSBkJrHcQ" version="24.0.7" type="github">
  <diagram name="Page-1" id="V5UDAG_Y_6yB8MbBszO8">
    <mxGraphModel dx="712" dy="1913" grid="1" gridSize="10" guides="1" tooltips="1" connect="1" arrows="1" fold="1" page="1" pageScale="1" pageWidth="827" pageHeight="1169" math="0" shadow="0">
      <root>
        <mxCell id="0" />
        <mxCell id="1" parent="0" />
        <mxCell id="gfWbD2_EwRutHvgx795S-1" value="система" style="shape=umlLifeline;perimeter=lifelinePerimeter;whiteSpace=wrap;html=1;container=0;dropTarget=0;collapsible=0;recursiveResize=0;outlineConnect=0;portConstraint=eastwest;newEdgeStyle={&quot;edgeStyle&quot;:&quot;elbowEdgeStyle&quot;,&quot;elbow&quot;:&quot;vertical&quot;,&quot;curved&quot;:0,&quot;rounded&quot;:0};" parent="1" vertex="1">
          <mxGeometry x="220" y="40" width="100" height="630" as="geometry" />
        </mxCell>
        <mxCell id="gfWbD2_EwRutHvgx795S-2" value="" style="html=1;points=[[0,0,0,0,5],[0,1,0,0,-5],[1,0,0,0,5],[1,1,0,0,-5]];perimeter=orthogonalPerimeter;outlineConnect=0;targetShapes=umlLifeline;portConstraint=eastwest;newEdgeStyle={&quot;curved&quot;:0,&quot;rounded&quot;:0};" parent="gfWbD2_EwRutHvgx795S-1" vertex="1">
          <mxGeometry x="45" y="70" width="10" height="30" as="geometry" />
        </mxCell>
        <mxCell id="gfWbD2_EwRutHvgx795S-3" value="" style="html=1;points=[[0,0,0,0,5],[0,1,0,0,-5],[1,0,0,0,5],[1,1,0,0,-5]];perimeter=orthogonalPerimeter;outlineConnect=0;targetShapes=umlLifeline;portConstraint=eastwest;newEdgeStyle={&quot;curved&quot;:0,&quot;rounded&quot;:0};" parent="gfWbD2_EwRutHvgx795S-1" vertex="1">
          <mxGeometry x="45" y="250" width="10" height="40" as="geometry" />
        </mxCell>
        <mxCell id="gfWbD2_EwRutHvgx795S-4" value="5:проверка данных" style="html=1;align=left;spacingLeft=2;endArrow=block;rounded=0;edgeStyle=orthogonalEdgeStyle;curved=0;rounded=0;" parent="gfWbD2_EwRutHvgx795S-1" target="gfWbD2_EwRutHvgx795S-3" edge="1">
          <mxGeometry relative="1" as="geometry">
            <mxPoint x="50" y="230" as="sourcePoint" />
            <Array as="points">
              <mxPoint x="80" y="260" />
            </Array>
          </mxGeometry>
        </mxCell>
        <mxCell id="gfWbD2_EwRutHvgx795S-5" value="Фильм/Сериал" style="shape=umlLifeline;perimeter=lifelinePerimeter;whiteSpace=wrap;html=1;container=0;dropTarget=0;collapsible=0;recursiveResize=0;outlineConnect=0;portConstraint=eastwest;newEdgeStyle={&quot;edgeStyle&quot;:&quot;elbowEdgeStyle&quot;,&quot;elbow&quot;:&quot;vertical&quot;,&quot;curved&quot;:0,&quot;rounded&quot;:0};" parent="1" vertex="1">
          <mxGeometry x="440" y="120" width="100" height="550" as="geometry" />
        </mxCell>
        <mxCell id="gfWbD2_EwRutHvgx795S-6" value="" style="html=1;points=[[0,0,0,0,5],[0,1,0,0,-5],[1,0,0,0,5],[1,1,0,0,-5]];perimeter=orthogonalPerimeter;outlineConnect=0;targetShapes=umlLifeline;portConstraint=eastwest;newEdgeStyle={&quot;curved&quot;:0,&quot;rounded&quot;:0};" parent="gfWbD2_EwRutHvgx795S-5" vertex="1">
          <mxGeometry x="45" y="110" width="10" height="30" as="geometry" />
        </mxCell>
        <mxCell id="gfWbD2_EwRutHvgx795S-7" value="" style="endArrow=block;endFill=1;endSize=12;html=1;rounded=0;" parent="1" target="gfWbD2_EwRutHvgx795S-1" edge="1">
          <mxGeometry width="160" relative="1" as="geometry">
            <mxPoint x="89.66666666666652" y="110" as="sourcePoint" />
            <mxPoint x="500" y="340" as="targetPoint" />
            <Array as="points">
              <mxPoint x="220" y="110" />
            </Array>
          </mxGeometry>
        </mxCell>
        <mxCell id="gfWbD2_EwRutHvgx795S-8" value="&lt;span style=&quot;font-size: 12px; background-color: rgb(251, 251, 251);&quot;&gt;1:запрос на просмотр&lt;/span&gt;" style="edgeLabel;html=1;align=center;verticalAlign=middle;resizable=0;points=[];" parent="gfWbD2_EwRutHvgx795S-7" vertex="1" connectable="0">
          <mxGeometry x="-0.0287" relative="1" as="geometry">
            <mxPoint x="13" y="-11" as="offset" />
          </mxGeometry>
        </mxCell>
        <mxCell id="gfWbD2_EwRutHvgx795S-9" value="" style="endArrow=open;endFill=1;endSize=12;html=1;rounded=0;dashed=1;" parent="1" edge="1">
          <mxGeometry width="160" relative="1" as="geometry">
            <mxPoint x="270" y="140" as="sourcePoint" />
            <mxPoint x="440" y="140" as="targetPoint" />
          </mxGeometry>
        </mxCell>
        <mxCell id="gfWbD2_EwRutHvgx795S-10" value="2:&quot;Create&quot;" style="edgeLabel;html=1;align=center;verticalAlign=middle;resizable=0;points=[];" parent="gfWbD2_EwRutHvgx795S-9" vertex="1" connectable="0">
          <mxGeometry x="-0.0287" relative="1" as="geometry">
            <mxPoint y="-10" as="offset" />
          </mxGeometry>
        </mxCell>
        <mxCell id="gfWbD2_EwRutHvgx795S-11" value="" style="endArrow=block;endFill=1;endSize=12;html=1;rounded=0;" parent="1" target="gfWbD2_EwRutHvgx795S-5" edge="1">
          <mxGeometry width="160" relative="1" as="geometry">
            <mxPoint x="270" y="230" as="sourcePoint" />
            <mxPoint x="450" y="230" as="targetPoint" />
            <Array as="points">
              <mxPoint x="400" y="230" />
            </Array>
          </mxGeometry>
        </mxCell>
        <mxCell id="gfWbD2_EwRutHvgx795S-12" value="3:заполнить данные" style="edgeLabel;html=1;align=center;verticalAlign=middle;resizable=0;points=[];" parent="gfWbD2_EwRutHvgx795S-11" vertex="1" connectable="0">
          <mxGeometry x="-0.0287" relative="1" as="geometry">
            <mxPoint y="-10" as="offset" />
          </mxGeometry>
        </mxCell>
        <mxCell id="gfWbD2_EwRutHvgx795S-13" value="" style="endArrow=none;endFill=0;endSize=12;html=1;rounded=0;startArrow=open;startFill=0;targetPerimeterSpacing=12;sourcePerimeterSpacing=6;dashed=1;" parent="1" edge="1">
          <mxGeometry width="160" relative="1" as="geometry">
            <mxPoint x="269.6666666666665" y="460.00000000000006" as="sourcePoint" />
            <mxPoint x="659.5" y="460.00000000000006" as="targetPoint" />
            <Array as="points">
              <mxPoint x="440" y="460" />
            </Array>
          </mxGeometry>
        </mxCell>
        <mxCell id="gfWbD2_EwRutHvgx795S-14" value="7:&lt;span style=&quot;font-size: 12px; background-color: rgb(251, 251, 251);&quot;&gt;просмотр&amp;nbsp;&lt;/span&gt;одобрен" style="edgeLabel;html=1;align=center;verticalAlign=middle;resizable=0;points=[];" parent="gfWbD2_EwRutHvgx795S-13" vertex="1" connectable="0">
          <mxGeometry x="-0.0287" relative="1" as="geometry">
            <mxPoint y="-10" as="offset" />
          </mxGeometry>
        </mxCell>
        <mxCell id="gfWbD2_EwRutHvgx795S-15" value="БД" style="shape=umlLifeline;perimeter=lifelinePerimeter;whiteSpace=wrap;html=1;container=0;dropTarget=0;collapsible=0;recursiveResize=0;outlineConnect=0;portConstraint=eastwest;newEdgeStyle={&quot;edgeStyle&quot;:&quot;elbowEdgeStyle&quot;,&quot;elbow&quot;:&quot;vertical&quot;,&quot;curved&quot;:0,&quot;rounded&quot;:0};" parent="1" vertex="1">
          <mxGeometry x="610" y="40" width="100" height="630" as="geometry" />
        </mxCell>
        <mxCell id="gfWbD2_EwRutHvgx795S-16" value="" style="endArrow=block;endFill=1;endSize=12;html=1;rounded=0;" parent="1" edge="1">
          <mxGeometry width="160" relative="1" as="geometry">
            <mxPoint x="490" y="420" as="sourcePoint" />
            <mxPoint x="660" y="420" as="targetPoint" />
            <Array as="points">
              <mxPoint x="625" y="420" />
            </Array>
          </mxGeometry>
        </mxCell>
        <mxCell id="gfWbD2_EwRutHvgx795S-17" value="6:&lt;span style=&quot;font-size: 12px; background-color: rgb(251, 251, 251);&quot;&gt;запрос на просмотр&lt;/span&gt;" style="edgeLabel;html=1;align=center;verticalAlign=middle;resizable=0;points=[];" parent="gfWbD2_EwRutHvgx795S-16" vertex="1" connectable="0">
          <mxGeometry x="-0.0287" relative="1" as="geometry">
            <mxPoint x="-1" y="-10" as="offset" />
          </mxGeometry>
        </mxCell>
        <mxCell id="gfWbD2_EwRutHvgx795S-18" value="" style="shape=umlLifeline;perimeter=lifelinePerimeter;whiteSpace=wrap;html=1;container=1;dropTarget=0;collapsible=0;recursiveResize=0;outlineConnect=0;portConstraint=eastwest;newEdgeStyle={&quot;curved&quot;:0,&quot;rounded&quot;:0};participant=umlActor;size=40;" parent="1" vertex="1">
          <mxGeometry x="80" y="40" width="20" height="630" as="geometry" />
        </mxCell>
        <mxCell id="gfWbD2_EwRutHvgx795S-19" value="" style="endArrow=none;endFill=0;endSize=12;html=1;rounded=0;startArrow=open;startFill=0;targetPerimeterSpacing=12;sourcePerimeterSpacing=6;dashed=1;" parent="1" edge="1">
          <mxGeometry width="160" relative="1" as="geometry">
            <mxPoint x="90" y="480" as="sourcePoint" />
            <mxPoint x="270" y="480" as="targetPoint" />
            <Array as="points">
              <mxPoint x="220" y="480" />
            </Array>
          </mxGeometry>
        </mxCell>
        <mxCell id="gfWbD2_EwRutHvgx795S-20" value="8:&lt;span style=&quot;font-size: 12px; background-color: rgb(251, 251, 251);&quot;&gt;просмотр&amp;nbsp;&lt;/span&gt;одобрен" style="edgeLabel;html=1;align=center;verticalAlign=middle;resizable=0;points=[];" parent="gfWbD2_EwRutHvgx795S-19" vertex="1" connectable="0">
          <mxGeometry x="-0.0287" relative="1" as="geometry">
            <mxPoint y="-10" as="offset" />
          </mxGeometry>
        </mxCell>
        <mxCell id="gfWbD2_EwRutHvgx795S-21" value="alt" style="shape=umlFrame;whiteSpace=wrap;html=1;pointerEvents=0;" parent="1" vertex="1">
          <mxGeometry x="30" y="360" width="710" height="290" as="geometry" />
        </mxCell>
        <mxCell id="gfWbD2_EwRutHvgx795S-22" value="" style="line;strokeWidth=2;fillColor=none;align=left;verticalAlign=middle;spacingTop=-1;spacingLeft=3;spacingRight=3;rotatable=0;labelPosition=right;points=[];portConstraint=eastwest;strokeColor=default;dashed=1;perimeterSpacing=14;" parent="1" vertex="1">
          <mxGeometry x="30" y="496" width="710" height="8" as="geometry" />
        </mxCell>
        <mxCell id="gfWbD2_EwRutHvgx795S-23" value="[нет фильма с аналогичными данными]" style="text;html=1;align=center;verticalAlign=middle;resizable=0;points=[];autosize=1;strokeColor=none;fillColor=none;" parent="1" vertex="1">
          <mxGeometry x="20" y="385" width="240" height="30" as="geometry" />
        </mxCell>
        <mxCell id="gfWbD2_EwRutHvgx795S-24" value="[фильм &amp;nbsp;уже просмотрен]" style="text;html=1;align=center;verticalAlign=middle;resizable=0;points=[];autosize=1;strokeColor=none;fillColor=none;" parent="1" vertex="1">
          <mxGeometry x="20" y="504" width="170" height="30" as="geometry" />
        </mxCell>
        <mxCell id="gfWbD2_EwRutHvgx795S-25" value="" style="endArrow=none;endFill=0;endSize=12;html=1;rounded=0;startArrow=open;startFill=0;targetPerimeterSpacing=12;sourcePerimeterSpacing=6;dashed=1;" parent="1" edge="1">
          <mxGeometry width="160" relative="1" as="geometry">
            <mxPoint x="269.9966666666665" y="549" as="sourcePoint" />
            <mxPoint x="490" y="549" as="targetPoint" />
            <Array as="points">
              <mxPoint x="440.33" y="549" />
            </Array>
          </mxGeometry>
        </mxCell>
        <mxCell id="gfWbD2_EwRutHvgx795S-26" value="7:&lt;span style=&quot;font-size: 12px; background-color: rgb(251, 251, 251);&quot;&gt;просмотр&amp;nbsp;&lt;/span&gt;не&lt;span style=&quot;font-size: 12px; background-color: rgb(251, 251, 251);&quot;&gt;&amp;nbsp;&lt;/span&gt;одобрен&amp;nbsp;" style="edgeLabel;html=1;align=center;verticalAlign=middle;resizable=0;points=[];" parent="gfWbD2_EwRutHvgx795S-25" vertex="1" connectable="0">
          <mxGeometry x="-0.0287" relative="1" as="geometry">
            <mxPoint y="-10" as="offset" />
          </mxGeometry>
        </mxCell>
        <mxCell id="gfWbD2_EwRutHvgx795S-27" value="" style="endArrow=none;endFill=0;endSize=12;html=1;rounded=0;startArrow=open;startFill=0;targetPerimeterSpacing=12;sourcePerimeterSpacing=6;dashed=1;" parent="1" edge="1">
          <mxGeometry width="160" relative="1" as="geometry">
            <mxPoint x="89.9966666666665" y="570" as="sourcePoint" />
            <mxPoint x="270" y="570" as="targetPoint" />
            <Array as="points">
              <mxPoint x="260.33" y="570" />
            </Array>
          </mxGeometry>
        </mxCell>
        <mxCell id="gfWbD2_EwRutHvgx795S-28" value="8:&lt;span style=&quot;font-size: 12px; background-color: rgb(251, 251, 251);&quot;&gt;просмотр&lt;/span&gt;&amp;nbsp;не одобрен" style="edgeLabel;html=1;align=center;verticalAlign=middle;resizable=0;points=[];" parent="gfWbD2_EwRutHvgx795S-27" vertex="1" connectable="0">
          <mxGeometry x="-0.0287" relative="1" as="geometry">
            <mxPoint y="-10" as="offset" />
          </mxGeometry>
        </mxCell>
        <mxCell id="gfWbD2_EwRutHvgx795S-29" value="" style="endArrow=none;endFill=0;endSize=12;html=1;rounded=0;startArrow=open;startFill=0;targetPerimeterSpacing=12;sourcePerimeterSpacing=6;dashed=1;" parent="1" source="gfWbD2_EwRutHvgx795S-1" edge="1">
          <mxGeometry width="160" relative="1" as="geometry">
            <mxPoint x="310" y="260" as="sourcePoint" />
            <mxPoint x="490" y="260" as="targetPoint" />
            <Array as="points">
              <mxPoint x="440" y="260" />
            </Array>
          </mxGeometry>
        </mxCell>
        <mxCell id="gfWbD2_EwRutHvgx795S-30" value="4:данные введены" style="edgeLabel;html=1;align=center;verticalAlign=middle;resizable=0;points=[];" parent="gfWbD2_EwRutHvgx795S-29" vertex="1" connectable="0">
          <mxGeometry x="-0.0287" relative="1" as="geometry">
            <mxPoint y="-10" as="offset" />
          </mxGeometry>
        </mxCell>
        <mxCell id="gfWbD2_EwRutHvgx795S-31" value="" style="shape=umlDestroy;whiteSpace=wrap;html=1;strokeWidth=3;targetShapes=umlLifeline;" parent="1" vertex="1">
          <mxGeometry x="475" y="610" width="30" height="30" as="geometry" />
        </mxCell>
        <mxCell id="gfWbD2_EwRutHvgx795S-32" value="" style="endArrow=block;endFill=1;endSize=12;html=1;rounded=0;" parent="1" edge="1">
          <mxGeometry width="160" relative="1" as="geometry">
            <mxPoint x="270" y="600" as="sourcePoint" />
            <mxPoint x="489.5" y="600" as="targetPoint" />
            <Array as="points">
              <mxPoint x="405" y="600" />
            </Array>
          </mxGeometry>
        </mxCell>
        <mxCell id="gfWbD2_EwRutHvgx795S-33" value="9:отменить" style="edgeLabel;html=1;align=center;verticalAlign=middle;resizable=0;points=[];" parent="gfWbD2_EwRutHvgx795S-32" vertex="1" connectable="0">
          <mxGeometry x="-0.0287" relative="1" as="geometry">
            <mxPoint y="-10" as="offset" />
          </mxGeometry>
        </mxCell>
        <mxCell id="gfWbD2_EwRutHvgx795S-34" value="sd addProduct" style="shape=umlFrame;whiteSpace=wrap;html=1;pointerEvents=0;fillStyle=auto;align=center;perimeterSpacing=1;labelPadding=0;container=0;autosize=0;shadow=0;fontSize=8;" parent="1" vertex="1">
          <mxGeometry y="-20" width="800" height="700" as="geometry" />
        </mxCell>
        <mxCell id="gfWbD2_EwRutHvgx795S-35" value="" style="rounded=1;whiteSpace=wrap;html=1;rotation=90;fillColor=#ff0000;" parent="1" vertex="1">
          <mxGeometry x="50" y="35" width="45" height="25" as="geometry" />
        </mxCell>
        <mxCell id="gfWbD2_EwRutHvgx795S-36" value="" style="shape=delay;whiteSpace=wrap;html=1;rotation=-90;fillColor=#ff0000;" parent="1" vertex="1">
          <mxGeometry x="64" y="15" width="80" height="50" as="geometry" />
        </mxCell>
        <mxCell id="gfWbD2_EwRutHvgx795S-37" value="" style="shape=delay;whiteSpace=wrap;html=1;rotation=90;fillColor=#ff0000;" parent="1" vertex="1">
          <mxGeometry x="77.75" y="85.5" width="24" height="13" as="geometry" />
        </mxCell>
        <mxCell id="gfWbD2_EwRutHvgx795S-38" value="" style="shape=delay;whiteSpace=wrap;html=1;rotation=90;fillColor=#FF3333;" parent="1" vertex="1">
          <mxGeometry x="109" y="85.5" width="24" height="13" as="geometry" />
        </mxCell>
        <mxCell id="gfWbD2_EwRutHvgx795S-39" value="" style="shape=delay;whiteSpace=wrap;html=1;fillColor=#dae8fc;strokeColor=#6c8ebf;" parent="1" vertex="1">
          <mxGeometry x="95" y="10" width="35" height="20" as="geometry" />
        </mxCell>
        <mxCell id="gfWbD2_EwRutHvgx795S-40" value="" style="ellipse;whiteSpace=wrap;html=1;strokeColor=#ffffff;" parent="1" vertex="1">
          <mxGeometry x="101.75" y="10" width="21.5" height="10" as="geometry" />
        </mxCell>
        <mxCell id="gfWbD2_EwRutHvgx795S-43" value="&lt;span style=&quot;text-wrap: wrap;&quot;&gt;&lt;font color=&quot;#0000cc&quot;&gt;Пользователь&lt;/font&gt;&lt;/span&gt;" style="text;html=1;align=center;verticalAlign=middle;resizable=0;points=[];autosize=1;strokeColor=none;fillColor=none;" parent="1" vertex="1">
          <mxGeometry x="44" y="40" width="100" height="30" as="geometry" />
        </mxCell>
      </root>
    </mxGraphModel>
  </diagram>
</mxfile>
